<svg width="250" height="200" viewBox="0 0 250 200" xmlns="http://www.w3.org/2000/svg">

  <line x1="5" y1="190" x2="245" y2="190" stroke-width="3" stroke="black"/>
  <polygon points="250,190 230,200 230,180" fill="black"/>

  <line x1="15" y1="5" x2="15" y2="195" stroke-width="3" stroke="black"/>
  <polygon points="15,0 5,20 25,20" fill="black"/>


  <rect x="20" y="110" width="80" height="80" fill="none" stroke="blue" stroke-width="2"/>
  <polygon points="20,110 60,80 100,110" fill="none" stroke="blue" stroke-width="2"/>

  <ellipse cx="20" cy="190" rx="5" ry="5" fill="blue" />
  <ellipse cx="20" cy="110" rx="5" ry="5" fill="blue" />
  <ellipse cx="100" cy="190" rx="5" ry="5" fill="blue" />
  <ellipse cx="100" cy="110" rx="5" ry="5" fill="blue" />
  <ellipse cx="60" cy="80" rx="5" ry="5" fill="blue" />


  <text x="23" y="180" font-family="Verdana" font-size="16">(0, 0)</text>
  <text x="23" y="130" font-family="Verdana" font-size="16">(0, 2)</text>
  <text x="108" y="110" font-family="Verdana" font-size="16">(2, 2)</text>
  <text x="50" y="65" font-family="Verdana" font-size="16">(1, 3)</text>
  <text x="103" y="180" font-family="Verdana" font-size="16">(2, 0)</text>

</svg>
